<svg xmlns="http://www.w3.org/2000/svg" width="512" height="512" viewBox="0 0 512 512" version="1.1"><path d="" stroke="none" fill="#080404" fill-rule="evenodd"/><path d="M 76 1.888 C 62.449 6.274, 50.717 15.584, 44.728 26.704 C 41.369 32.941, 38 45.608, 38 52 C 38 58.392, 41.369 71.059, 44.728 77.296 C 50.836 88.637, 63.284 98.336, 76.932 102.388 C 83.079 104.213, 96.199 104.481, 102.972 102.921 C 121.184 98.724, 137.055 82.591, 141.494 63.760 C 147.885 36.655, 130.985 8.670, 103.869 1.453 C 96.426 -0.528, 82.807 -0.316, 76 1.888 M 251.206 2.060 C 247.476 4.542, 244.857 9.194, 243.077 16.500 C 240.626 26.560, 233.066 38.521, 224.121 46.490 C 215.492 54.178, 202.318 59.934, 189.934 61.427 C 183.312 62.225, 178.726 64.787, 175.950 69.241 C 173.710 72.832, 173.715 75.656, 175.990 91.250 C 180.485 122.059, 161.475 157.378, 132.501 172.053 C 128.101 174.282, 120.017 177.214, 114.537 178.569 C 104.037 181.166, 100.157 183.602, 98.134 188.867 C 97.578 190.315, 96.930 197.125, 96.694 204 C 96.172 219.221, 94.051 226.601, 87.172 237.139 C 78.603 250.265, 65.198 259.817, 50.019 263.613 C 43.714 265.190, 31.161 265.123, 17 263.438 C 8.045 262.372, 1 269.072, 1 278.654 C 1 291.922, 6.509 318.347, 13.686 339.500 C 18.508 353.715, 31.057 380.166, 38.593 392 C 53.084 414.758, 77.802 442.313, 97.115 457.239 C 132.250 484.394, 171.283 501.511, 215.597 509.195 C 233.173 512.242, 276.136 512.508, 294 509.679 C 400.155 492.869, 483.574 414.719, 506.374 310.716 C 510.760 290.706, 511.500 282.812, 511.500 256 C 511.500 239.912, 511.008 227.178, 510.166 221.500 C 503.358 175.558, 485.271 133.142, 457.004 96.829 C 448.700 86.161, 425.924 63.372, 415.189 54.990 C 372.162 21.393, 321.062 2.248, 269.500 0.405 C 255.259 -0.104, 254.333 -0.020, 251.206 2.060 M 84.692 31.396 C 76.039 33.779, 69.068 42.848, 69.022 51.782 C 68.953 65.138, 82.316 76.140, 94.838 73.038 C 102.092 71.241, 106.445 67.833, 109.524 61.540 C 111.763 56.965, 112.166 55.011, 111.794 50.533 C 110.649 36.719, 97.942 27.747, 84.692 31.396 M 267.082 39.686 C 259.538 55.407, 248.088 68.451, 233.603 77.824 C 226.444 82.457, 211.901 88.950, 208.612 88.982 C 206.917 88.998, 206.790 89.553, 207.362 94.427 C 208.200 101.553, 206.501 117.479, 203.834 127.500 C 194.574 162.296, 168.474 191.970, 136.418 204.146 L 128.335 207.216 127.226 215.503 C 121.458 258.618, 85.646 292.808, 43.250 295.676 C 38.163 296.020, 34 296.643, 34 297.060 C 34 297.477, 35.519 303.821, 37.375 311.159 C 59.324 397.932, 130.267 463.388, 218.721 478.478 C 248.397 483.541, 283.155 481.915, 313.555 474.042 C 383.418 455.948, 442.212 402.679, 467.479 334.582 C 485.869 285.017, 485.860 226.701, 467.455 177.418 C 459.801 156.926, 446.444 133.167, 433.206 116.500 C 425.103 106.297, 406.794 87.861, 397 80.041 C 372.300 60.319, 343.312 45.712, 313.302 37.864 C 303.112 35.199, 278.763 31.016, 273.375 31.005 C 271.689 31.001, 270.387 32.797, 267.082 39.686 M 288.227 74.447 C 269.922 78.880, 253.927 94.511, 248.517 113.252 C 246.338 120.803, 246.338 135.197, 248.517 142.748 C 255.435 166.713, 277.075 183, 302 183 C 331.993 183, 357 157.993, 357 128 C 357 103.387, 339.428 80.774, 315.448 74.528 C 308.462 72.709, 295.564 72.670, 288.227 74.447 M 297.326 104.140 C 289.702 105.473, 283.319 110.415, 279.429 118 C 276.851 123.024, 277.003 133.284, 279.732 138.500 C 282.410 143.619, 287.484 148.475, 292.218 150.449 C 296.908 152.405, 306.678 152.450, 311.257 150.537 C 329.350 142.977, 331.149 117.290, 314.313 106.885 C 310.286 104.396, 302.793 103.185, 297.326 104.140 M 390.984 123.824 C 386.235 126.310, 382.724 133.089, 383.302 138.659 C 384.895 154.007, 405.967 157.371, 412.204 143.273 C 418.041 130.076, 403.864 117.082, 390.984 123.824 M 7.241 148.995 C 1.933 152.231, -0.172 156.533, 0.259 163.261 C 0.574 168.161, 1.121 169.529, 3.918 172.416 C 13.547 182.350, 29.993 175.781, 29.993 162 C 29.993 150.364, 17.091 142.989, 7.241 148.995 M 386.782 185.553 C 377.677 187.760, 369.111 192.651, 362.500 199.417 C 352.384 209.770, 348 220.559, 348 235.105 C 348 257.233, 362.919 276.913, 384.703 283.523 C 391.107 285.466, 405.259 285.405, 412.068 283.405 C 429.968 278.147, 444.186 262.985, 447.895 245.201 C 455.408 209.171, 422.370 176.925, 386.782 185.553 M 201.475 200.063 C 199.811 200.546, 196.915 202.524, 195.040 204.459 C 192.125 207.466, 191.571 208.816, 191.226 213.739 C 190.890 218.548, 191.213 220.078, 193.181 223 C 201.568 235.446, 221 229.858, 221 215 C 221 204.808, 211.134 197.260, 201.475 200.063 M 297.315 212.092 C 286.318 215.309, 282.984 230.389, 291.598 237.951 C 301.804 246.912, 317 239.910, 317 226.247 C 317 216.972, 306.484 209.410, 297.315 212.092 M 391 216.118 C 387.780 217.396, 382.247 222.702, 380.343 226.338 C 379.526 227.900, 378.857 231.567, 378.857 234.488 C 378.857 255.257, 406.007 262.256, 415.753 244 C 419.228 237.492, 418.648 228.630, 414.397 223.287 C 408.837 216.298, 398.518 213.136, 391 216.118 M 264.017 269.851 C 255.716 274.303, 253.218 284.580, 258.484 292.616 C 262.404 298.598, 273.181 300.475, 278.977 296.184 C 288.504 289.131, 288.114 275.804, 278.217 270.242 C 273.366 267.516, 268.616 267.385, 264.017 269.851 M 166 271.567 C 144.782 276.161, 128.186 293.770, 124.850 315.224 C 120.046 346.125, 145.206 375.067, 176.799 374.985 C 206.825 374.907, 231.195 348.462, 228.675 318.691 C 227.082 299.874, 216.423 284.261, 199.500 275.958 C 191.873 272.215, 182.487 269.919, 175.500 270.087 C 173.850 270.127, 169.575 270.792, 166 271.567 M 167.081 303.647 C 155.089 309.623, 151.384 324.722, 159.326 335.253 C 171.803 351.797, 197.886 343.235, 197.978 322.566 C 198.031 310.638, 188.133 301, 175.830 301 C 173.940 301, 170.003 302.191, 167.081 303.647 M 69.500 312.964 C 64.682 314.981, 60 321.974, 60 327.152 C 60 328.371, 60.932 331.294, 62.071 333.647 C 67.472 344.803, 83.301 345.019, 89.148 334.016 C 94.415 324.106, 86.825 311.885, 75.516 312.063 C 73.307 312.098, 70.600 312.504, 69.500 312.964 M 315 313.433 C 292.778 319.626, 277.647 339.283, 277.615 362 C 277.600 372.493, 279.972 381.099, 285.040 388.940 C 303.170 416.991, 340.759 421.218, 363.946 397.813 C 391.213 370.292, 378.396 323.441, 340.869 313.453 C 334.375 311.724, 321.167 311.714, 315 313.433 M 422.500 313.861 C 416.407 317.624, 413.509 323.887, 414.934 330.208 C 416.593 337.561, 421.042 341.237, 428.955 341.789 C 433.527 342.109, 435.114 341.763, 438 339.819 C 450.441 331.436, 444.920 311.992, 430.102 312.004 C 427.373 312.006, 424.279 312.762, 422.500 313.861 M 319.500 344.417 C 313.513 347.090, 307.993 355.398, 308.006 361.718 C 308.050 383.692, 338.013 389.966, 346.452 369.768 C 350.449 360.203, 345.193 347.656, 335.685 344.064 C 331.824 342.605, 323.135 342.795, 319.500 344.417 M 231.475 412.029 C 229.811 412.531, 226.915 414.524, 225.040 416.459 C 222.125 419.466, 221.571 420.816, 221.226 425.739 C 220.890 430.548, 221.213 432.078, 223.181 435 C 231.601 447.496, 251 441.917, 251 427 C 251 416.772, 241.052 409.145, 231.475 412.029" stroke="none" fill="#1e9469" fill-rule="evenodd"/></svg>