<svg width="32" height="32" viewBox="0 0 32 32" fill="none" xmlns="http://www.w3.org/2000/svg">
<path d="M2.51841 8.4575L14.5184 14.9039C14.9216 15.1199 15.4432 15.2223 15.968 15.2223C16.4928 15.2223 17.0144 15.1199 17.4176 14.9039L29.4176 8.4575C30.2 8.0367 30.9392 6.3999 29.504 6.3999H2.43361C0.998409 6.3999 1.73761 8.0367 2.51841 8.4575ZM29.7808 11.9823L17.4176 18.4255C16.8736 18.7103 16.4928 18.7439 15.968 18.7439C15.4432 18.7439 15.0624 18.7103 14.5184 18.4255C13.9744 18.1407 3.10561 12.4431 2.21761 11.9807C1.59361 11.6543 1.60001 12.0367 1.60001 12.3311V23.9999C1.60001 24.6719 2.50561 25.5999 3.20001 25.5999H28.8C29.4944 25.5999 30.4 24.6719 30.4 23.9999V12.3327C30.4 12.0383 30.4064 11.6559 29.7808 11.9823Z" fill="white"/>
</svg>
